<?xml version="1.0" standalone="no"?><!DOCTYPE svg PUBLIC "-//W3C//DTD SVG 1.1//EN" "http://www.w3.org/Graphics/SVG/1.1/DTD/svg11.dtd"><svg t="1618282476322" class="icon" viewBox="0 0 1024 1024" version="1.1" xmlns="http://www.w3.org/2000/svg" p-id="7085" xmlns:xlink="http://www.w3.org/1999/xlink" width="200" height="200"><defs><style type="text/css"></style></defs><path d="M141.24032 577.50016h17.65376c20.97152-47.21152 34.5344-93.00992 40.99584-105.92768 17.65376-35.30752 35.30752-35.30752 52.9664 0 2.80576 2.80576 8.03328 12.20096 14.6176 25.47712 25.86624 58.17344 46.90944 104.36096 51.57376 111.35488 35.30752 52.96128 52.9664 52.96128 88.27392 0 10.66496-16 109.47584-237.4144 154.42944-338.56 12.84096-11.68896 25.69216-4.92544 38.52288 20.7616 17.65376 17.65376 125.70624 286.89408 125.70624 286.89408h180.608a61.61408 61.61408 0 0 0 55.61856 35.30752c34.1248 0 61.78816-27.66336 61.78816-61.78816 0-34.12992-27.66336-61.79328-61.78816-61.79328a61.6192 61.6192 0 0 0-55.61856 35.30752h-135.32672c-45.46048-103.45984-142.75584-324.00896-153.33376-339.86048-35.30752-52.9664-52.9664-52.9664-88.27392 0-7.16288 10.752-45.88544 114.37056-88.61184 211.86048-23.09632 52.91008-44.36992 98.92352-51.3792 105.92768-17.65376 35.30752-35.30752 35.30752-52.9664 0-4.99712-9.99424-17.28512-37.05856-32.27648-70.62016h-1.97632c-16.4352-35.68128-28.58496-61.1584-31.93856-66.20672-35.30752-52.9664-52.9664-52.9664-88.27392 0-5.77536 8.64768-33.3312 80.4352-66.24256 158.89408H0v52.9664h141.24032z" fill="#8a8a8a" p-id="7086"></path><path d="M600.27392 541.16352s-17.65376-35.30752-35.30752 0c-8.91392 17.83296-131.84512 216.63232-177.77152 292.01408 0 0-122.368-168.42752-140.02176-203.74016 0 0-17.65376-35.30752-35.30752 0-8.81152 17.60256-58.57792 118.47168-80.03072 160.1024H0v35.30752h158.8992v-15.01184l71.09632-135.2192 147.72224 203.01824h21.39648l181.45792-292.51072 143.28832 236.05248v3.49184l2.23232 0.19968 15.43168-0.19968H1024v-35.10784h-280.192s-125.88032-213.07904-143.53408-248.3968z" fill="#8a8a8a" p-id="7087"></path></svg>