<?xml version="1.0" standalone="no"?><!DOCTYPE svg PUBLIC "-//W3C//DTD SVG 1.1//EN" "http://www.w3.org/Graphics/SVG/1.1/DTD/svg11.dtd"><svg t="1618282297699" class="icon" viewBox="0 0 1024 1024" version="1.1" xmlns="http://www.w3.org/2000/svg" p-id="3376" xmlns:xlink="http://www.w3.org/1999/xlink" width="200" height="200"><defs><style type="text/css"></style></defs><path d="M512 856.576c-11.776 0-23.552-3.072-34.304-9.216l-239.104-138.24c-20.992-12.288-34.304-34.816-34.304-58.88V373.76c0-24.064 13.312-47.104 34.304-58.88l239.104-138.24c20.48-11.776 47.616-11.776 68.096 0l239.104 138.24c20.992 12.288 34.304 34.816 34.304 58.88v276.48c0 24.064-13.312 47.104-34.304 58.88l-239.104 138.24c-9.728 6.144-21.504 9.216-33.792 9.216z m0-647.68c-4.608 0-9.216 1.024-13.312 3.584l-239.104 138.24c-8.192 4.608-13.312 13.312-13.312 23.04v276.48c0 9.216 5.12 17.92 13.312 23.04l239.104 138.24c8.192 4.608 18.432 4.608 26.624 0l239.104-138.24c8.192-4.608 13.312-13.312 13.312-23.04V373.76c0-9.216-5.12-17.92-13.312-23.04l-239.104-138.24c-4.096-2.048-8.704-3.584-13.312-3.584z" p-id="3377" fill="#707070"></path><path d="M713.216 578.56c-2.56-6.656-8.704-11.264-16.384-11.264h-36.864V479.744c0-9.728-7.68-17.408-17.408-17.408h-57.344c-2.56-7.68-7.68-14.848-15.36-20.992 11.264-9.728 17.92-21.504 17.92-34.304 0-36.352-53.248-65.024-120.832-65.024s-120.832 28.672-120.832 65.024c0 12.8 6.656 24.576 17.92 34.304-11.264 9.728-17.92 21.504-17.92 33.792s6.656 24.576 17.92 34.304c-11.264 9.728-17.92 21.504-17.92 33.792 0 36.352 53.248 65.024 120.832 65.024 8.704 0 17.408-0.512 25.6-1.536l91.648 83.456c3.072 3.072 7.168 4.608 11.776 4.608 4.096 0 8.192-1.536 11.776-4.608l100.864-92.16c5.12-5.12 7.168-12.8 4.608-19.456z m-245.76-216.576c59.392 0 101.376 24.064 101.376 45.056 0 21.504-41.472 45.056-101.376 45.056s-101.376-24.064-101.376-45.056c0-21.504 41.984-45.056 101.376-45.056zM380.928 452.608c22.016 11.776 52.224 18.944 86.528 18.944s64.512-7.168 86.528-18.944c4.096 3.072 7.168 6.144 9.728 9.728h-14.336c-9.728 0-17.408 7.68-17.408 17.408v29.184c-16.896 6.656-38.912 11.264-64.512 11.264-59.392 0-101.376-24.064-101.376-45.056 0-7.68 5.632-15.36 14.848-22.528z m-14.848 90.624c0-7.68 5.632-15.36 14.848-22.528 22.016 11.776 52.224 18.944 86.528 18.944 24.064 0 46.08-4.096 64.512-10.24v37.888h-36.864c-7.168 0-13.312 4.608-16.384 11.264-1.024 3.072-1.536 6.144-1.024 9.728-3.584 0-7.168 0.512-10.752 0.512-58.88-0.512-100.864-24.064-100.864-45.568z m229.888 130.56l-95.232-87.04h33.28c9.728 0 17.408-7.68 17.408-17.408V481.792h89.088v87.552c0 9.728 7.68 17.408 17.408 17.408h33.28l-95.232 87.04z" p-id="3378" fill="#707070"></path><path d="M474.624 415.232l33.792-0.512c4.608 0 6.656 1.024 6.656 3.072 0 2.048-2.048 3.072-6.656 3.072l-33.792 0.512v12.288c0 1.536-0.512 2.56-1.536 3.072s-3.072 0.512-6.144 1.024c-2.56 0-4.608-0.512-5.632-0.512-1.024-0.512-1.536-1.536-1.536-3.072v-12.288l-33.28 0.512c-4.608 0-6.656-1.024-6.656-2.56 0-2.048 2.048-3.072 6.144-3.072l33.792-0.512v-8.704l-33.28 0.512c-4.608 0-6.656-1.024-6.656-2.56 0-2.048 2.048-3.072 6.144-3.072l24.576-0.512c-5.12-3.584-9.728-7.168-14.848-10.24-5.12-3.584-9.728-6.656-14.848-10.24-2.56-2.048-2.048-3.584 1.536-4.608 1.536-0.512 3.584-0.512 5.12-0.512 1.536 0 3.072 0.512 4.608 1.536l33.792 24.064h4.096c5.12-4.096 10.752-8.192 16.384-12.288l16.384-12.288c2.048-1.536 3.584-2.048 5.12-2.048s3.072 0.512 5.12 0.512c2.048 0.512 3.072 1.024 3.072 1.536 0 0.512-0.512 1.536-2.048 2.56l-28.672 20.992 24.064-0.512c4.608 0 6.656 1.024 6.656 3.072 0 2.048-2.048 3.072-6.656 3.072l-33.792 0.512v8.192h-1.024z" p-id="3379" fill="#707070"></path></svg>